PathFileType	3	(X/Y/Z)	E:\ViconData\BIOM9541 2025\Week 7\Wed1100\Hanif high squat 5 Squat 01.trc
DataRate	CameraRate	NumFrames	NumMarkers	Units	OrigDataRate	OrigDataStartFrame	OrigNumFrames
200.0	200.0	15	19	mm	200.0	182	1450	
Frame#	Time	C7			CLAV			RBAK			LASI			RASI			LPSI			RPSI			LTHI			LKNE			LTIB			LANK			LHEE			LTOE			RTHI			RKNE			RTIB			RANK			RHEE			RTOE			
		X1	Y1	Z1	X2	Y2	Z2	X3	Y3	Z3	X4	Y4	Z4	X5	Y5	Z5	X6	Y6	Z6	X7	Y7	Z7	X8	Y8	Z8	X9	Y9	Z9	X10	Y10	Z10	X11	Y11	Z11	X12	Y12	Z12	X13	Y13	Z13	X14	Y14	Z14	X15	Y15	Z15	X16	Y16	Z16	X17	Y17	Z17	X18	Y18	Z18	X19	Y19	Z19	
182	0.905	327.54758	1152.5173	-1209.645	185.50375	1072.3378	-1206.5254	352.85464	1067.0719	-1356.5576	261.71982	711.65814	-1078.8547	252.1846	720.7832	-1338.2581	428.7704	774.9734	-1166.2626	426.8759	773.1653	-1234.0317	183.95325	496.92944	-930.26355	116.96582	375.07486	-905.69177	220.21935	194.71074	-924.13739	299.19415	64.234421	-970.13525	326.05084	53.725357	-1031.0642	160.48778	37.999786	-949.67145	279.22375	621.30737	-1420.7937	122.35532	370.77847	-1493.2737	157.32669	292.11536	-1498.1423	293.05194	71.130966	-1435.5985	322.60822	51.564648	-1367.1764	162.60872	40.432495	-1460.439	
183	0.91	327.50647	1150.0828	-1209.8076	185.23897	1069.7397	-1205.8062	352.82556	1064.64	-1356.6884	261.90906	709.2666	-1079.2281	252.5605	718.4406	-1338.4719	429.0178	772.4139	-1166.1587	427.4662	770.5319	-1235.2386	183.27312	495.79181	-930.07281	115.89232	374.34171	-905.26556	219.70044	194.33012	-924.04138	299.1329	64.184113	-970.26947	325.98267	53.798378	-1031.1238	160.60976	38.15337	-949.50861	279.49329	619.5788	-1421.0557	121.38836	370.00635	-1493.9303	156.5211	291.46994	-1498.7064	292.9285	71.15097	-1435.6045	322.52332	51.591171	-1367.1174	162.6105	40.467461	-1460.4664	
184	0.915	327.41174	1147.6846	-1209.8887	185.0778	1067.1494	-1206.3726	352.89743	1062.3445	-1356.9313	261.95425	707.02734	-1079.3397	252.9204	716.2404	-1338.738	429.2947	769.9052	-1166.0748	427.57	767.9345	-1234.1984	182.66879	494.59692	-929.90552	114.77308	373.61334	-904.76416	219.12965	194.00787	-923.8432	299.04382	64.229828	-970.26178	325.91528	53.886631	-1031.1957	160.53168	38.168972	-949.51758	279.70416	617.90613	-1421.2081	120.53749	369.34299	-1494.6984	155.72273	290.90918	-1499.2911	292.87732	71.175468	-1435.6091	322.44339	51.673248	-1367.0405	162.63606	40.523731	-1460.4855	
185	0.92	327.29568	1145.2267	-1209.9659	185.63818	1064.7456	-1206.8176	352.94366	1060.05	-1357.1066	262.08243	704.65784	-1079.668	253.2821	714.087	-1339.0981	429.5531	767.5067	-1166.1428	428.1161	765.5669	-1234.978	181.98001	493.57965	-929.67731	113.67684	372.84915	-904.3598	218.62556	193.70929	-923.70941	298.94016	64.204689	-970.32617	325.83569	53.939705	-1031.2572	160.39546	38.027119	-949.66138	279.8913	616.23663	-1421.418	119.67581	368.64917	-1495.4041	154.99779	290.31317	-1499.8805	292.83063	71.17128	-1435.6211	322.4017	51.733284	-1366.9874	162.65504	40.567795	-1460.5111	
186	0.925	327.25287	1142.875	-1210.1165	185.02692	1062.1177	-1206.8986	352.92203	1057.6987	-1357.3175	262.1553	702.37811	-1079.8168	253.6238	711.8665	-1339.2142	429.7758	764.9891	-1166.1475	428.1552	763.2695	-1233.7069	181.35017	492.48648	-929.5658	112.66476	372.18396	-903.98315	218.07904	193.40814	-923.57477	298.84125	64.173767	-970.27698	325.76648	53.962734	-1031.3402	160.41672	38.018677	-949.69006	280.0441	614.63721	-1421.6384	118.80652	367.85172	-1496.074	154.30522	289.70114	-1500.4513	292.77716	71.104782	-1435.6653	322.32898	51.751232	-1366.9977	162.68858	40.516148	-1460.5215	
187	0.93	327.22168	1140.5293	-1210.3195	185.31255	1059.9233	-1207.6589	352.89093	1055.3939	-1357.4398	262.33038	700.09137	-1080.1323	253.9158	709.7069	-1339.5038	430.0147	762.5262	-1166.3884	428.5239	760.9291	-1234.1606	180.72084	491.50919	-929.39844	111.58418	371.53622	-903.56378	217.60271	193.20349	-923.45612	298.74509	64.214783	-970.29242	325.65588	53.890221	-1031.3682	160.38313	38.0172	-949.74194	280.19958	612.99872	-1421.8903	118.01791	367.16638	-1496.8905	153.5631	289.05847	-1500.9926	292.7334	70.984619	-1435.6942	322.32471	51.762466	-1367.1267	162.69945	40.457287	-1460.5493	
188	0.935	327.15369	1138.2438	-1210.4333	185.7536	1057.3521	-1207.7581	352.90518	1053.1804	-1357.6088	262.44098	697.82367	-1080.2548	254.1725	707.6119	-1339.7461	430.2284	760.1995	-1166.5076	428.5692	758.2465	-1234.2181	180.15584	490.43106	-929.28552	110.62491	370.8045	-903.25281	217.07231	192.91963	-923.30536	298.67892	64.181068	-970.41608	325.54865	53.900242	-1031.4371	160.34726	38.054813	-949.81696	280.36356	611.44781	-1422.0737	117.16483	366.50653	-1497.5748	152.8568	288.45035	-1501.6185	292.66183	70.963478	-1435.7181	322.24707	51.808247	-1367.0753	162.68346	40.454559	-1460.5801	
189	0.94	327.09439	1135.9369	-1210.5741	185.51488	1054.7123	-1206.693	352.82721	1050.9552	-1357.7305	262.56448	695.61896	-1080.4608	254.4675	705.5646	-1339.8744	430.3922	757.9707	-1166.3839	428.953	756.2097	-1234.2437	179.52403	489.40036	-929.20782	109.65543	370.15723	-902.92078	216.60265	192.56693	-923.26654	298.95697	64.636169	-970.25494	325.49301	54.086067	-1031.5535	160.24132	38.189648	-949.83417	280.49701	609.97119	-1422.2827	116.32249	365.88498	-1498.2449	152.1949	287.98297	-1502.1665	292.58203	70.99218	-1435.7415	322.09781	51.945957	-1366.881	162.67989	40.51783	-1460.5857	
190	0.945	327.05823	1133.6838	-1210.6226	185.25578	1052.3337	-1206.8774	352.80911	1048.743	-1357.8884	262.67725	693.422	-1080.6416	254.7376	703.5734	-1340.0509	430.522	755.6641	-1166.1299	429.424	753.898	-1235.1704	178.9276	488.45251	-929.1369	108.7039	369.46667	-902.65527	216.10551	192.2179	-923.23505	298.75339	64.624527	-970.32764	325.3891	54.259953	-1031.6381	160.17363	38.203262	-949.89282	280.60107	608.51959	-1422.4514	115.60977	365.30841	-1498.9985	151.50877	287.43042	-1502.689	292.51392	71.031242	-1435.7491	321.9946	52.039215	-1366.7076	162.66603	40.549957	-1460.5944	
191	0.95	327.0209	1131.4587	-1210.7462	185.54918	1050.3563	-1207.9728	352.79825	1046.5559	-1358.009	262.74792	691.2486	-1080.6528	254.8934	701.576	-1340.2201	430.7432	753.4034	-1166.293	429.7913	750.8782	-1239.7832	178.36343	487.4628	-929.09705	107.75813	368.86456	-902.41876	215.65875	192.01852	-923.18298	298.33719	64.202507	-970.55554	325.35727	54.252308	-1031.6848	160.12326	38.191471	-949.92395	280.67963	607.05841	-1422.598	114.90569	364.64969	-1499.7206	150.90967	286.85748	-1503.224	292.48041	70.954735	-1435.7656	321.95471	52.063866	-1366.725	162.68118	40.508766	-1460.6013	
192	0.955	326.94373	1129.298	-1210.8352	185.82178	1048.0422	-1208.2275	352.83774	1044.3722	-1358.1014	262.88937	689.073	-1080.847	255.1021	699.5574	-1340.354	430.9594	751.1588	-1166.6035	429.996	748.6393	-1239.9565	177.81654	486.55359	-929.10907	106.82297	368.28067	-902.21661	215.18782	191.8063	-923.13428	298.27902	64.157326	-970.71399	325.35751	54.187206	-1031.7887	160.07858	38.140541	-949.95148	280.77463	605.60229	-1422.7638	114.21311	363.93405	-1500.4264	150.28053	286.19241	-1503.8414	292.45914	70.865509	-1435.8051	321.91132	52.021374	-1366.8679	162.70418	40.431599	-1460.6172	
193	0.96	326.87704	1127.1973	-1210.941	185.53288	1045.9615	-1208.9058	352.83057	1042.2764	-1358.2352	263.03015	686.97845	-1080.9274	255.2466	697.5735	-1340.5095	431.2048	748.9685	-1166.8708	429.775	747.4692	-1234.1193	177.32263	485.71625	-929.09869	105.96823	367.72595	-902.05084	214.72322	191.49977	-923.16003	298.21472	64.243156	-970.76086	325.30481	54.142956	-1031.8523	160.07713	38.13699	-950.01379	280.89102	604.22424	-1422.9927	113.51347	363.33069	-1501.194	149.71251	285.64084	-1504.3971	292.43774	70.800697	-1435.814	321.86539	52.048195	-1366.9113	162.71236	40.38435	-1460.6389	
194	0.965	326.77786	1125.0389	-1210.9672	184.90887	1043.7416	-1207.9624	352.77692	1040.1526	-1358.2577	263.21835	684.83392	-1081.0341	255.3763	695.6874	-1340.7008	431.3731	746.9187	-1166.8425	429.9839	745.4562	-1234.3103	176.85159	484.73679	-929.14923	105.09019	367.19598	-901.86267	214.32649	191.26422	-923.10638	298.12875	64.247818	-970.79895	325.2803	54.215408	-1031.9489	160.02068	38.158134	-950.00885	280.97531	602.81885	-1423.1425	112.85294	362.69864	-1501.8746	149.14896	285.15463	-1504.943	292.34854	70.831207	-1435.8135	321.79675	52.105698	-1366.8496	162.70938	40.462101	-1460.701	
195	0.97	326.69366	1122.946	-1211.084	184.91869	1041.6512	-1208.0261	352.75751	1038.1492	-1358.4081	263.44958	682.7323	-1081.2208	255.5291	693.7607	-1340.8114	431.5426	744.9081	-1166.7544	430.5482	742.5319	-1240.0731	176.82393	484.10635	-929.61438	104.28285	366.52625	-901.74414	213.83855	191.00009	-923.03088	298.03128	64.206879	-970.83875	325.25461	54.324932	-1032.0385	160.01471	38.171459	-950.02484	281.05701	601.53503	-1423.3893	112.25323	362.19427	-1502.6206	148.64999	284.70917	-1505.5706	292.332	70.88707	-1435.8123	321.70361	52.208069	-1366.6932	162.73929	40.526428	-1460.7307	
196	0.975	326.64548	1120.9359	-1211.2285	185.04173	1039.4104	-1207.8622	352.70651	1036.0981	-1358.4698	263.56995	680.68567	-1081.2632	255.6972	691.8881	-1340.9032	431.6787	742.8917	-1166.6171	430.1758	741.0507	-1234.494	175.9599	482.96487	-929.11377	103.43053	366.03729	-901.52905	213.4008	190.7177	-923.05103	297.95963	64.186867	-970.96899	325.18057	54.440739	-1032.1473	159.97473	38.208557	-950.04834	281.24686	600.15601	-1423.5505	111.67313	361.67923	-1503.3861	148.19583	284.25113	-1506.149	292.28812	70.929459	-1435.8435	321.60437	52.326607	-1366.5381	162.74901	40.560486	-1460.7537	
